<?xml version="1.0" encoding="utf-8"?>
<!-- Generator: Adobe Illustrator 27.5.0, SVG Export Plug-In . SVG Version: 6.00 Build 0)  -->
<svg version="1.1" xmlns="http://www.w3.org/2000/svg" xmlns:xlink="http://www.w3.org/1999/xlink" x="0px" y="0px"
	 viewBox="0 0 500 500" style="enable-background:new 0 0 500 500;" xml:space="preserve">
<g id="BACKGROUND">
	<g>
		<g>
			<g>
				<g>
					<g>
						<rect x="0.004" y="-0.004" style="fill:#FFFFFF;" width="500" height="500"/>
					</g>
				</g>
			</g>
		</g>
	</g>
</g>
<g id="OBJECTS">
	<g>
		<g>
			<g>
				<circle style="fill:#7770FA;" cx="409.95" cy="96.267" r="3.558"/>
			</g>
		</g>
		<g>
			<g>
				<path style="fill:#7770FA;" d="M413.508,79.081c0,1.965-1.593,3.558-3.558,3.558c-1.965,0-3.558-1.593-3.558-3.558
					c0-1.965,1.593-3.558,3.558-3.558C411.915,75.523,413.508,77.116,413.508,79.081z"/>
			</g>
		</g>
		<g>
			<g>
				<circle style="fill:#7770FA;" cx="427.136" cy="96.267" r="3.558"/>
			</g>
		</g>
		<g>
			<g>
				<path style="fill:#7770FA;" d="M444.322,99.824c-1.965,0-3.558-1.593-3.558-3.558s1.593-3.558,3.558-3.558
					c1.965,0,3.558,1.593,3.558,3.558S446.287,99.824,444.322,99.824z"/>
			</g>
		</g>
		<g>
			<g>
				<circle style="fill:#7770FA;" cx="461.508" cy="96.267" r="3.558"/>
			</g>
		</g>
		<g>
			<g>
				<path style="fill:#7770FA;" d="M430.694,79.081c0,1.965-1.593,3.558-3.558,3.558c-1.965,0-3.558-1.593-3.558-3.558
					c0-1.965,1.593-3.558,3.558-3.558C429.101,75.523,430.694,77.116,430.694,79.081z"/>
			</g>
		</g>
		<g>
			<g>
				<path style="fill:#7770FA;" d="M444.322,82.638c-1.965,0-3.558-1.593-3.558-3.558c0-1.965,1.593-3.558,3.558-3.558
					c1.965,0,3.558,1.593,3.558,3.558C447.88,81.045,446.287,82.638,444.322,82.638z"/>
			</g>
		</g>
		<g>
			<g>
				<path style="fill:#7770FA;" d="M461.508,82.638c-1.965,0-3.558-1.593-3.558-3.558c0-1.965,1.593-3.558,3.558-3.558
					c1.965,0,3.558,1.593,3.558,3.558C465.066,81.045,463.473,82.638,461.508,82.638z"/>
			</g>
		</g>
	</g>
	<g>
		<g>
			<path style="fill:#FFFFFF;" d="M244.996,311.065v113.009c0,2.552-2.068,4.621-4.621,4.621H46.257
				c-2.553,0-4.621-2.069-4.621-4.621V311.065H244.996z"/>
		</g>
		<g>
			<path style="fill:#9CD9D3;" d="M244.994,302.067v9H41.634v-9c0-2.554,2.074-4.62,4.62-4.62h194.12
				C242.928,297.447,244.994,299.513,244.994,302.067z"/>
		</g>
		<g>
			<path style="fill:#FFFFFF;" d="M229.145,299.718c2.355,0,4.269,1.914,4.269,4.269c0,2.362-1.914,4.269-4.269,4.269
				c-2.362,0-4.276-1.907-4.276-4.269C224.869,301.632,226.784,299.718,229.145,299.718z"/>
		</g>
		<g>
			<path style="fill:#292953;" d="M211.894,299.718c2.362,0,4.276,1.914,4.276,4.269c0,2.362-1.914,4.269-4.276,4.269
				c-2.355,0-4.269-1.907-4.269-4.269C207.625,301.632,209.539,299.718,211.894,299.718z"/>
		</g>
		<g>
			<path style="fill:#ABABFB;" d="M194.649,299.718c2.362,0,4.276,1.914,4.276,4.269c0,2.362-1.914,4.269-4.276,4.269
				c-2.354,0-4.269-1.907-4.269-4.269C190.381,301.632,192.295,299.718,194.649,299.718z"/>
		</g>
		<g>
			<path style="fill:#292953;" d="M240.375,429.444H46.258c-2.961,0-5.371-2.409-5.371-5.371V302.065
				c0-2.962,2.41-5.371,5.371-5.371h194.117c2.962,0,5.371,2.409,5.371,5.371v122.009
				C245.746,427.035,243.337,429.444,240.375,429.444z M46.258,298.194c-2.134,0-3.871,1.736-3.871,3.871v122.009
				c0,2.135,1.737,3.871,3.871,3.871h194.117c2.135,0,3.871-1.736,3.871-3.871V302.065c0-2.135-1.736-3.871-3.871-3.871H46.258z"/>
		</g>
	</g>
	<g>
		<g>
			<path style="fill:#FFFFFF;" d="M398.504,90.042v146.264c0,3.304-2.677,5.981-5.981,5.981H216.156
				c-3.304,0-5.981-2.677-5.981-5.981V90.042H398.504z"/>
		</g>
		<g>
			<path style="fill:#9CD9D3;" d="M398.504,78.39v11.648H210.175V78.39c0-3.305,2.674-5.979,5.979-5.979h176.371
				C395.83,72.411,398.504,75.085,398.504,78.39z"/>
		</g>
		<g>
			<path style="fill:#FFFFFF;" d="M377.989,75.355c3.047,0,5.525,2.478,5.525,5.525c0,3.057-2.478,5.525-5.525,5.525
				c-3.057,0-5.535-2.468-5.535-5.525C372.455,77.833,374.932,75.355,377.989,75.355z"/>
		</g>
		<g>
			<path style="fill:#292953;" d="M355.661,75.355c3.057,0,5.535,2.478,5.535,5.525c0,3.057-2.478,5.525-5.535,5.525
				c-3.047,0-5.525-2.468-5.525-5.525C350.136,77.833,352.614,75.355,355.661,75.355z"/>
		</g>
		<g>
			<path style="fill:#ABABFB;" d="M333.342,75.355c3.057,0,5.535,2.478,5.535,5.525c0,3.057-2.478,5.525-5.535,5.525
				c-3.047,0-5.525-2.468-5.525-5.525C327.817,77.833,330.295,75.355,333.342,75.355z"/>
		</g>
		<g>
			<path style="fill:#292953;" d="M392.523,243.037H216.156c-3.712,0-6.73-3.02-6.73-6.731V78.393c0-3.711,3.019-6.731,6.73-6.731
				h176.368c3.712,0,6.732,3.019,6.732,6.731v157.913C399.255,240.018,396.235,243.037,392.523,243.037z M216.156,73.163
				c-2.884,0-5.23,2.346-5.23,5.231v157.913c0,2.885,2.346,5.231,5.23,5.231h176.368c2.885,0,5.232-2.347,5.232-5.231V78.393
				c0-2.884-2.347-5.231-5.232-5.231H216.156z"/>
		</g>
	</g>
	<g>
		<polygon style="fill:#FFFFFF;" points="375.564,255.012 375.573,258.25 334.708,258.25 334.7,255.012 		"/>
	</g>
	<g>
		<g>
			<rect x="223.736" y="108.342" style="fill:#7770FA;" width="50.153" height="50.153"/>
		</g>
		<g>
			<rect x="285.188" y="108.342" style="fill:#ABABFB;" width="50.153" height="50.153"/>
		</g>
		<g>
			<rect x="285.188" y="169.731" style="fill:#7770FA;" width="50.153" height="50.153"/>
		</g>
		<g>
			<rect x="223.736" y="169.731" style="fill:#ABABFB;" width="50.153" height="50.153"/>
		</g>
	</g>
	<g>
		<g>
			<path style="fill:#FFFFFF;" d="M483.6,223.105c0.652,8.418-6.685,51.385-14.665,53.075c0,0-0.449-0.011-1.219-0.086l0.021-0.246
				c15.167-38.1,12.301-56.123,12.204-56.669C481.996,219.971,483.472,221.49,483.6,223.105z"/>
		</g>
		<g>
			<path style="fill:#292953;" d="M479.942,219.18c0.096,0.546,2.963,18.569-12.204,56.669l-0.021,0.246
				c-4.022-0.321-16.932-1.947-22.205-9.381c8.29-7.872,4.278-18.301,4.278-18.301s0.289-2.514,4.054-2.578
				c0,0,5.027-3.219,10.375-12.365l3.797-8.857c3.091-6.076,8.375-6.824,11.926-5.444
				C479.942,219.169,479.942,219.169,479.942,219.18z"/>
		</g>
		<g>
			<path style="fill:#FFFFFF;" d="M474.594,372.479c0.941,2,0.963,4.118-0.064,5.37c-5.337,6.546-40.293,32.591-47.235,28.313
				c0,0-0.31-0.321-0.834-0.909l0.193-0.16C464.497,387.699,474.594,372.479,474.594,372.479z"/>
		</g>
		<g>
			<path style="fill:#292953;" d="M462.208,368.189c6.418-2.257,10.771,0.834,12.386,4.289c0,0-10.097,15.221-47.941,32.613
				l-0.193,0.16c-2.695-3.027-10.9-13.103-9.595-22.109c11.434,0.021,15.724-10.301,15.724-10.301s1.947-1.615,4.728,0.941
				c0,0,5.851,1.134,16.034-1.797L462.208,368.189z"/>
		</g>
		<g>
			<path style="fill:#FFFFFF;" d="M449.789,248.413c0,0,4.011,10.429-4.278,18.301l-9.744-0.417
				c0.856-2.674,3.188-11.006,2.225-19.521L449.789,248.413z"/>
		</g>
		<g>
			<path style="fill:#FFFFFF;" d="M437.991,246.776c0.963,8.514-1.369,16.847-2.225,19.521c-0.182,0.578-0.299,0.888-0.299,0.888
				s-72.51,10.14-80.981,9.466c-8.471-0.663-19.531-3.712-19.531-3.712s-1.433,2.268-3.819,5.947
				c-6.247,9.637-19.039,28.955-29.586,42.175c-5.348,6.685-10.119,11.809-13.178,13.328c-11.392,5.648-38.549,13.381-55.3,5.156
				c-16.75-8.225-36.079-25.874-37.469-28.345c-0.791-1.423-0.684-3.294-0.449-4.631l1.444,1.005c0,0,28.987-18.355,35.533-31.073
				c6.535-12.707,7.081-22.997,7.081-22.997l33.201,9.028c0,0,27.361-19.553,32.271-21.264c4.899-1.711,16.494-8.921,26.463-7.284
				c9.958,1.636,106.096,8.675,106.096,8.675C437.585,244.016,437.831,245.396,437.991,246.776z"/>
		</g>
		<g>
			<path style="fill:#FFFFFF;" d="M421.284,358.605l11.306,14.237c0,0-4.289,10.322-15.724,10.301l-11.723-12.183
				C414.759,368.96,419.743,361.408,421.284,358.605z"/>
		</g>
		<g>
			<path style="fill:#ABABFB;" d="M421.284,358.605c-1.54,2.802-6.525,10.354-16.141,12.354c-0.834,0.182-1.711,0.31-2.631,0.396
				c0,0-34.346-26.388-41.191-32.998c-6.835-6.621-10.846-17.991-10.846-17.991l-48.925,0.695
				c10.547-13.221,23.339-32.538,29.586-42.175c0,0,29.896,8.996,33.458,11.146c3.573,2.161,10.557,7.584,12.493,10.707
				c1.925,3.123,44.742,56.797,44.742,56.797S421.658,357.932,421.284,358.605z"/>
		</g>
		<g>
			<path style="fill:#FFFFFF;" d="M256.807,189.679c1.187,3.936-2.086,9.659-5.947,12.483c-3.016,2.214-29.265,9.049-40.614,11.926
				c3.166-5.038,7.552-14.846,2.685-25.414l19.339-2.567c0,0-0.043-6.739,0-13.574c0.053-6.846-2.77-34.891-2.77-34.891
				s-15.681-16.205-16.44-17.285c-0.759-1.08-2.642-13.745-2.642-13.745s0.449-1.455,2.492-0.856c0,0-0.781-2.236,0.888-2.61
				c1.679-0.364,3.091,0.674,3.091,0.674s2.064-1.711,4.236,0c0,0,2.289-1.08,4.311,0.524c0,0,1.99-1.006,3.647,0.781
				c1.647,1.776,3.198,7.316,3.198,7.316s7.156,7.113,8.225,10.14c1.059,3.016,1.829,10.151,1.829,10.151
				S255.62,185.743,256.807,189.679z"/>
		</g>
		<g>
			<path style="fill:#292953;" d="M239.126,253.365c0.021,0.043,0.053,0.096,0.085,0.139l-10.803-2.129l-8.247-5.605
				c5.166-3.519,11.071-2.974,17.082,4.888c0.118,0.16,0.235,0.31,0.342,0.481c0.16,0.214,0.321,0.438,0.471,0.663
				c0.214,0.31,0.406,0.588,0.567,0.824c0.139,0.192,0.267,0.385,0.385,0.578c0.032,0.032,0.053,0.064,0.075,0.107
				C239.094,253.333,239.105,253.354,239.126,253.365z"/>
		</g>
		<g>
			<path style="fill:#FFFFFF;" d="M195.154,306.568l-5.081-3.53c4.535-3.69,11.167-11.263,13.852-25.147
				c2.439-12.611,8.536-26.88,16.237-32.121l8.247,5.605l10.803,2.129c0,0-0.546,10.29-7.081,22.997
				c-6.546,12.718-35.533,31.073-35.533,31.073L195.154,306.568z"/>
		</g>
		<g>
			<path style="fill:#FFFFFF;" d="M238.057,251.803c0.203,0.267,0.396,0.546,0.567,0.824
				C238.463,252.391,238.271,252.113,238.057,251.803z"/>
		</g>
		<g>
			<path style="fill:#7770FA;" d="M115.167,218.42c6.803-3.583,14.622-7.231,14.622-7.231s3.369-5.402,5.744-6.846
				c2.385-1.433,3.423-0.898,3.423-0.898l0.353,2.888c0,0,8.279,7.188,18.654,6.942c10.386-0.257,13.648-6.942,13.648-6.942
				s-1.358-2.332-2.728-5.477c-1.176-2.663-2.353-5.883-2.717-8.771c0,0,11.841-7.188,21.66-7.092
				c9.808,0.096,24.002,1.562,24.002,1.562c0.406,0.706,0.781,1.423,1.102,2.118c4.867,10.568,0.481,20.376-2.685,25.414
				c-1.412,2.246-2.578,3.54-2.578,3.54l-6.343,1.497c0,0,8.204,5.605,10.728,8.536c2.524,2.941,2.31,11.306,2.31,11.306
				s8.953-1.487,12.932,0.513c2.738,1.38,7.338,7.487,9.948,11.178c-6.011-7.862-11.916-8.407-17.082-4.888
				c-7.701,5.241-13.798,19.51-16.237,32.121c-2.685,13.884-9.316,21.457-13.852,25.147c-2.653,2.171-4.578,3.006-4.578,3.006
				c-33.105-11.402-55.407-37.768-55.407-37.768l-7.434,6.739c0,0-1.241,0.353-3.904,0.332c-3.22-0.021-8.514-0.588-16.215-3.006
				c-5.102-1.594-8.611-3.712-11.028-5.776c-4.246-3.605-5.07-7.006-5.07-7.006s15.306-33.158,21.842-37.266
				C110.097,221.158,112.557,219.789,115.167,218.42z"/>
		</g>
		<g>
			<path style="fill:#FFFFFF;" d="M168.884,200.857c1.369,3.145,2.728,5.477,2.728,5.477s-3.262,6.685-13.648,6.942
				c-10.375,0.246-18.654-6.942-18.654-6.942l-0.353-2.888l-1.369-11.349c0.567,0.556,1.155,1.07,1.743,1.53
				C139.33,193.626,155.342,213.874,168.884,200.857z"/>
		</g>
		<g>
			<path style="fill:#FFFFFF;" d="M165.055,157.195c2.086,6.043,5.016,14.975,5.412,18.708c0.46,4.214-2.15,11.509-4.3,16.184
				c-0.866,1.893-1.647,3.359-2.129,4.022c-1.69,2.31-6.247,2.845-9.616,2.888c-1.776,0.021-9.028-0.556-15.092-5.37
				c-0.588-0.46-1.177-0.973-1.743-1.53v-0.011c-1.679-1.647-3.198-3.669-4.396-6.172c-2.193,0.449-4.524,0.203-6.557-0.717
				c-2.482-1.102-4.535-3.145-5.626-5.626c-0.749-1.701-1.059-3.626-0.674-5.455c0.385-1.829,1.497-3.53,3.113-4.471
				c0.717-0.396,1.53-0.652,2.342-0.727c0,0,6.428-3.519,7.273-11.156c0.845-7.626,1.134-15.317,5.851-17.339
				c0,0,12.793-5.295,23.639,9.669c0.128,0.342,0.235,0.695,0.342,1.048h0.011C162.905,151.141,163.835,153.686,165.055,157.195z"/>
		</g>
		<g>
			<path style="fill:#292953;" d="M166.167,192.086c0.364,2.888,1.54,6.107,2.717,8.771c-13.541,13.017-29.554-7.231-29.554-7.231
				c6.065,4.813,13.317,5.391,15.092,5.37c3.369-0.043,7.926-0.578,9.616-2.888C164.52,195.445,165.301,193.979,166.167,192.086z"/>
		</g>
		<g>
			<path style="fill:#292953;" d="M128.259,135.898c0.385-2.246,2.471-4.033,4.717-4.653c2.471-0.685,5.091-0.289,7.626,0.118
				c5.658,0.909,11.327,1.808,16.986,2.717c2.075,0.332,4.364,0.792,5.594,2.492c0.909,1.252,1.016,2.899,1.091,4.439
				c0.257,5.402,0.513,10.782,0.781,16.183c-1.219-3.508-2.15-6.054-2.15-6.054h-0.011c-0.107-0.353-0.214-0.706-0.342-1.048
				c-10.846-14.964-23.639-9.669-23.639-9.669c-4.717,2.022-5.006,9.712-5.851,17.339c-0.845,7.637-7.273,11.156-7.273,11.156
				c-0.813,0.075-1.626,0.332-2.342,0.727c-1.615,0.941-2.728,2.642-3.113,4.471c-0.385,1.829-0.075,3.754,0.674,5.455
				c1.091,2.482,3.145,4.525,5.626,5.626c2.032,0.92,4.364,1.166,6.557,0.717c1.198,2.503,2.717,4.525,4.396,6.172v0.011
				l1.369,11.349c0,0-1.038-0.535-3.423,0.898c-2.375,1.444-5.744,6.846-5.744,6.846s-7.819,3.647-14.622,7.231
				c-4.075-0.567-8.097-1.754-12.065-2.941c-3.626-1.08-7.252-2.171-10.867-3.252c-0.556-6.45,0.727-13.049,3.669-18.804
				c-7.102,4.054-12.076,11.712-12.793,19.863c-0.738,0.075-1.487,0.15-2.225,0.235c-0.941-4.129,0.043-8.611,2.043-12.397
				c2.257-4.257,5.712-7.755,9.242-11.038c3.541-3.284,7.241-6.428,10.204-10.247c3.594-4.631,6.001-10.172,6.931-15.959
				c0.642-3.99,0.588-8.054,1.187-12.044c0.588-3.99,1.936-8.044,4.835-10.846C118.708,137.717,123.596,136.69,128.259,135.898z"/>
		</g>
		<g>
			<path style="fill:#FFFFFF;" d="M102.535,272.34c7.701,2.417,12.996,2.984,16.215,3.006c-4.246,6.386-17.488,26.292-18.922,28.217
				c-1.711,2.3-46.24,46.903-46.24,46.903c-1.519,10.119-9.209,13.98-9.209,13.98s-1.305,9.327-1.487,13.231
				c-0.193,3.904-3.573,3.936-3.573,3.936l-2.011-19.328l-13.894,4.022c0,0-2.867,4.567-6.321,6.461
				c-3.455,1.904-6.792,2.086-7.134,1.048c-0.353-1.048,5.198-7.284,5.198-7.284c0-2.792,2.011-5.027,5.059-7.434
				c3.048-2.417,22.377-16.429,22.377-16.429S63.782,309.884,66.97,304.6c3.198-5.273,15.018-15.456,15.018-15.456l9.52-22.58
				C93.924,268.629,97.433,270.746,102.535,272.34z"/>
		</g>
		<g>
			<path style="fill:#292953;" d="M468.934,276.93c-0.006,0-0.012,0-0.017,0c0,0-0.47-0.011-1.273-0.089
				c-0.409-0.039-0.711-0.401-0.675-0.812l0.022-0.246c0.006-0.072,0.023-0.145,0.05-0.212
				c15.119-37.979,12.194-56.084,12.163-56.262c-0.047-0.266,0.053-0.537,0.262-0.709c0.209-0.172,0.494-0.218,0.746-0.121
				c2.364,0.911,3.987,2.703,4.137,4.565c0,0,0,0.001,0,0.001c0.556,7.169-6.243,51.958-15.258,53.866
				C469.04,276.924,468.987,276.93,468.934,276.93z M468.715,275.42c0.061,0.003,0.11,0.005,0.148,0.007
				c7.06-1.808,14.671-43.456,13.989-52.262l0,0c-0.079-0.99-0.832-1.98-2.005-2.706
				C481.266,225.371,481.501,243.037,468.715,275.42z"/>
		</g>
		<g>
			<path style="fill:#292953;" d="M467.718,276.845c-0.021,0-0.04-0.001-0.061-0.002c-3.949-0.315-17.262-1.947-22.758-9.695
				c-0.216-0.304-0.176-0.721,0.095-0.978c7.815-7.422,4.25-17.082,4.095-17.489c-0.043-0.112-0.059-0.234-0.045-0.355
				c0.123-1.07,1.237-3.09,4.556-3.234c0.892-0.637,5.325-4.054,9.972-12.001l3.755-8.773c3.192-6.276,8.771-7.45,12.888-5.848
				c0.266,0.103,0.447,0.346,0.475,0.626c0.206,1.241,2.787,19.203-12.213,56.928l-0.012,0.137
				C468.429,276.55,468.102,276.845,467.718,276.845z M446.504,266.789c5.074,6.438,16.357,8.1,20.648,8.504
				c13.753-34.663,12.441-52.689,12.106-55.572c-3.444-1.121-7.935,0.046-10.575,5.232l-3.775,8.812
				c-5.419,9.278-10.448,12.565-10.66,12.701c-0.117,0.075-0.253,0.115-0.392,0.118c-2.571,0.043-3.162,1.315-3.291,1.777
				C451.079,249.913,453.793,259.368,446.504,266.789z"/>
		</g>
		<g>
			<path style="fill:#292953;" d="M429.272,407.362c-0.947,0-1.747-0.179-2.371-0.563c-0.054-0.033-0.103-0.073-0.146-0.118
				c0,0-0.317-0.329-0.854-0.931c-0.136-0.151-0.203-0.352-0.189-0.555c0.016-0.203,0.112-0.391,0.269-0.521l0.192-0.16
				c0.051-0.042,0.107-0.078,0.166-0.105c37.22-17.105,47.529-32.196,47.629-32.347c0.15-0.226,0.412-0.349,0.68-0.333
				c0.271,0.02,0.509,0.184,0.624,0.429c1.101,2.339,1.038,4.7-0.162,6.164C470.928,383.451,440.244,407.362,429.272,407.362z
				 M427.765,405.569c6.369,3.539,40.605-21.354,46.184-28.194c0.628-0.767,0.767-2.002,0.417-3.342
				c-3.08,3.847-15.066,16.773-46.707,31.422C427.702,405.501,427.738,405.539,427.765,405.569z"/>
		</g>
		<g>
			<path style="fill:#292953;" d="M426.461,406.002c-0.207,0-0.412-0.085-0.561-0.251c-2.636-2.962-11.133-13.352-9.776-22.716
				c0.054-0.369,0.369-0.643,0.742-0.643h0.001c0.012,0,0.023,0,0.035,0c10.755,0,14.827-9.438,14.995-9.84
				c0.047-0.111,0.12-0.211,0.214-0.288c0.828-0.686,3.03-1.377,5.542,0.813c1.084,0.152,6.641,0.735,15.491-1.811l8.768-3.766
				c0.016-0.007,0.031-0.013,0.047-0.018c6.604-2.319,11.444,0.678,13.314,4.68c0.11,0.236,0.09,0.514-0.055,0.732
				c-0.417,0.628-10.63,15.572-48.162,32.838l-0.116,0.097C426.801,405.945,426.631,406.002,426.461,406.002z M417.533,383.882
				c-0.759,8.136,6.258,17.146,9.077,20.404c33.895-15.624,45.35-29.538,47.109-31.878c-1.71-3.185-5.757-5.435-11.239-3.52
				l-8.833,3.787c-10.327,2.977-16.227,1.892-16.473,1.844c-0.137-0.026-0.263-0.09-0.365-0.185
				c-1.898-1.745-3.209-1.235-3.624-0.993C432.486,374.823,427.928,383.54,417.533,383.882z"/>
		</g>
		<g>
			<path style="fill:#292953;" d="M445.51,267.464c-0.011,0-0.021,0-0.032-0.001l-9.744-0.417c-0.233-0.01-0.449-0.128-0.583-0.32
				c-0.134-0.191-0.17-0.435-0.099-0.657c0.756-2.366,3.15-10.743,2.193-19.209c-0.026-0.229,0.056-0.459,0.222-0.621
				c0.165-0.161,0.393-0.239,0.627-0.206l11.798,1.637c0.27,0.038,0.498,0.219,0.597,0.474c0.042,0.109,4.093,10.991-4.462,19.115
				C445.887,267.391,445.702,267.464,445.51,267.464z M436.767,265.589l8.453,0.362c6.733-6.619,4.633-14.909,4.01-16.859
				l-10.399-1.442C439.473,255.18,437.69,262.452,436.767,265.589z"/>
		</g>
		<g>
			<path style="fill:#292953;" d="M250.989,343.863c-6.549,0-12.903-1.021-18.248-3.646c-16.493-8.099-36.254-25.917-37.792-28.65
				c-0.902-1.622-0.789-3.685-0.534-5.129c0.044-0.252,0.214-0.464,0.451-0.563c0.236-0.1,0.505-0.069,0.716,0.077l1.032,0.718
				c3.574-2.309,28.896-18.946,34.849-30.513c6.378-12.399,6.993-22.593,6.999-22.694c0.013-0.227,0.126-0.435,0.31-0.567
				c0.184-0.134,0.419-0.176,0.636-0.116l32.858,8.934c3.106-2.214,27.434-19.504,32.17-21.154c1.088-0.38,2.555-1.058,4.253-1.842
				c5.84-2.698,14.676-6.771,22.578-5.475c9.812,1.612,105.069,8.597,106.03,8.667c0.322,0.023,0.594,0.251,0.673,0.565
				c0.34,1.353,0.598,2.771,0.766,4.213c0,0.001,0,0.002,0,0.003c0.991,8.762-1.476,17.396-2.256,19.834
				c-0.189,0.601-0.313,0.926-0.313,0.926c-0.098,0.256-0.326,0.439-0.598,0.477c-2.963,0.414-72.677,10.144-81.145,9.471
				c-7.381-0.578-16.804-2.978-19.134-3.593c-0.535,0.843-1.774,2.785-3.527,5.488c-6.578,10.149-19.176,29.133-29.629,42.235
				c-6.128,7.661-10.521,12.087-13.431,13.531C281.249,338.758,265.634,343.863,250.989,343.863z M195.748,307.896
				c-0.06,0.988,0.031,2.076,0.511,2.938c1.222,2.172,20.214,19.725,37.144,28.038c16.794,8.246,44.062,0.087,54.636-5.155
				c2.671-1.326,7.02-5.741,12.925-13.124c10.412-13.052,22.979-31.988,29.543-42.115c2.381-3.672,3.812-5.938,3.814-5.939
				c0.176-0.28,0.515-0.411,0.833-0.322c0.11,0.03,11.091,3.037,19.391,3.686c7.935,0.639,74.21-8.541,80.366-9.397
				c0.041-0.12,0.088-0.265,0.141-0.434c0.758-2.369,3.152-10.746,2.195-19.212c-0.139-1.191-0.341-2.363-0.604-3.493
				c-8.568-0.629-96.02-7.065-105.618-8.643c-7.458-1.227-16.032,2.735-21.706,5.355c-1.733,0.801-3.232,1.492-4.388,1.896
				c-4.753,1.656-31.809,20.971-32.081,21.166c-0.184,0.131-0.416,0.172-0.633,0.113l-32.333-8.791
				c-0.29,2.818-1.595,11.705-7.086,22.38c-6.564,12.753-34.608,30.609-35.798,31.363c-0.256,0.16-0.583,0.155-0.83-0.019
				L195.748,307.896z"/>
		</g>
		<g>
			<path style="fill:#292953;" d="M416.901,383.893c-0.213,0-0.427-0.074-0.575-0.229l-11.723-12.183
				c-0.189-0.197-0.257-0.481-0.177-0.742c0.081-0.261,0.297-0.457,0.564-0.513c9.483-1.974,14.365-9.67,15.636-11.981
				c0.121-0.22,0.344-0.365,0.594-0.386c0.261-0.023,0.495,0.085,0.65,0.28l11.306,14.236c0.17,0.214,0.21,0.503,0.105,0.755
				C433.237,373.237,428.674,383.893,416.901,383.893z M406.593,371.386l10.59,11.005c9.443-0.145,13.64-7.6,14.533-9.442
				l-10.336-13.015C419.348,363.273,414.719,369.209,406.593,371.386z"/>
		</g>
		<g>
			<path style="fill:#292953;" d="M402.511,372.106c-0.165,0-0.325-0.054-0.457-0.155c-1.403-1.078-34.457-26.489-41.255-33.054
				c-6.14-5.946-9.971-15.452-10.846-17.772l-48.394,0.688c-0.297,0.015-0.556-0.159-0.685-0.42
				c-0.127-0.261-0.094-0.571,0.088-0.798c10.412-13.053,22.979-31.989,29.543-42.116c0.182-0.279,0.527-0.405,0.845-0.31
				c1.225,0.368,30.028,9.048,33.63,11.221c3.324,2.012,10.631,7.546,12.743,10.954c1.881,3.052,44.263,56.19,44.69,56.726
				c0.173,0.216,0.212,0.511,0.103,0.766c0,0-0.181,0.419-0.576,1.134c-1.729,3.145-6.81,10.68-16.646,12.727
				c-0.834,0.182-1.725,0.315-2.715,0.408C402.558,372.105,402.535,372.106,402.511,372.106z M350.474,319.616
				c0.317,0,0.602,0.2,0.707,0.5c0.04,0.112,4.035,11.284,10.66,17.702c6.44,6.22,37.845,30.416,40.892,32.762
				c0.814-0.085,1.552-0.201,2.251-0.353c9.49-1.976,14.372-9.672,15.643-11.983c0-0.001,0.001-0.002,0.002-0.003
				c0.134-0.242,0.24-0.445,0.321-0.604c-4.091-5.129-42.637-53.479-44.502-56.505c-1.818-2.935-8.573-8.239-12.243-10.459
				c-2.705-1.633-22.288-7.752-32.746-10.906c-6.448,9.933-18.254,27.693-28.341,40.523l47.346-0.673
				C350.468,319.616,350.47,319.616,350.474,319.616z"/>
		</g>
		<g>
			<path style="fill:#292953;" d="M210.246,214.838c-0.335,0-0.641-0.226-0.727-0.566c-0.101-0.401,0.141-0.809,0.543-0.911
				c17.925-4.544,37.939-10.031,40.354-11.804c3.561-2.605,6.767-8.034,5.673-11.661c-1.18-3.908-13.939-54.816-14.482-56.981
				c-0.009-0.033-0.015-0.067-0.018-0.102c-0.007-0.071-0.773-7.083-1.791-9.983c-0.829-2.349-6.089-7.912-8.046-9.857
				c-0.092-0.091-0.159-0.205-0.193-0.33c-0.418-1.493-1.777-5.662-3.026-7.008c-1.218-1.313-2.61-0.694-2.765-0.619
				c-0.258,0.125-0.573,0.095-0.799-0.085c-1.618-1.284-3.45-0.467-3.528-0.431c-0.256,0.116-0.56,0.083-0.781-0.091
				c-1.625-1.282-3.131-0.143-3.296-0.008c-0.265,0.214-0.644,0.225-0.92,0.024c-0.009-0.006-1.172-0.829-2.488-0.546
				c-0.239,0.054-0.326,0.159-0.374,0.244c-0.206,0.367-0.065,1.094,0.036,1.388c0.09,0.265,0.026,0.56-0.168,0.762
				c-0.193,0.203-0.483,0.282-0.752,0.202c-0.982-0.289-1.364,0.026-1.506,0.248c0.891,5.958,2.055,12.475,2.488,13.213
				c0.527,0.748,10.072,10.688,16.358,17.184c0.117,0.121,0.19,0.278,0.207,0.446c0.116,1.147,2.827,28.164,2.774,34.973
				c-0.042,6.751-0.001,13.495,0,13.563c0.003,0.378-0.277,0.699-0.651,0.749l-19.339,2.567c-0.408,0.05-0.788-0.235-0.842-0.645
				c-0.054-0.411,0.234-0.788,0.645-0.842l18.684-2.48c-0.009-1.865-0.031-7.391,0.003-12.921c0.05-6.379-2.456-31.704-2.74-34.553
				c-2.277-2.354-15.586-16.124-16.334-17.188c-0.799-1.137-2.322-11.053-2.77-14.065c-0.017-0.111-0.008-0.225,0.025-0.331
				c0.186-0.603,0.88-1.528,2.282-1.53c-0.025-0.464,0.029-0.998,0.288-1.464c0.281-0.505,0.752-0.845,1.363-0.982
				c1.381-0.298,2.59,0.176,3.227,0.514c0.984-0.585,2.691-1.047,4.375,0.049c0.802-0.258,2.587-0.617,4.306,0.519
				c1.004-0.319,2.71-0.37,4.09,1.119c1.59,1.714,3.018,6.41,3.316,7.434c1.04,1.044,7.224,7.335,8.265,10.283
				c1.04,2.961,1.784,9.561,1.862,10.269c0.475,1.894,13.298,53.041,14.45,56.862c1.295,4.29-2.172,10.343-6.223,13.305
				c-3.167,2.325-29.638,9.2-40.872,12.048C210.369,214.831,210.307,214.838,210.246,214.838z"/>
		</g>
		<g>
			<path style="fill:#292953;" d="M196.598,308.323c-0.15,0-0.3-0.045-0.428-0.135l-6.524-4.534
				c-0.34-0.236-0.424-0.704-0.188-1.044c0.236-0.341,0.703-0.425,1.044-0.189l6.114,4.249c3.574-2.309,28.896-18.946,34.849-30.513
				c5.461-10.617,6.697-19.617,6.943-22.049l-10.144-1.998c-0.099-0.02-0.193-0.06-0.276-0.116l-8.247-5.605
				c-0.343-0.232-0.432-0.699-0.199-1.042c0.233-0.342,0.701-0.431,1.042-0.198l8.12,5.519l10.653,2.099
				c0.367,0.072,0.624,0.403,0.604,0.776c-0.022,0.427-0.629,10.597-7.163,23.3c-6.564,12.753-34.608,30.609-35.798,31.363
				C196.876,308.284,196.737,308.323,196.598,308.323z"/>
		</g>
		<g>
			<path style="fill:#292953;" d="M171.612,207.084c-0.258,0-0.509-0.133-0.648-0.372c-0.051-0.086-1.131-1.949-2.341-4.6
				c-3.241,2.808-6.87,4.093-10.803,3.826c-9.832-0.67-18.186-10.739-19.021-11.775c-0.077-0.061-0.153-0.122-0.229-0.184
				l1.484,12.264c0.05,0.411-0.243,0.785-0.654,0.835c-0.412,0.046-0.785-0.243-0.835-0.654l-1.722-14.238
				c-0.038-0.316,0.127-0.622,0.414-0.763c0.283-0.14,0.628-0.087,0.856,0.138c0.533,0.522,1.098,1.018,1.68,1.474
				c0.047,0.037,0.089,0.079,0.126,0.126c0.084,0.106,8.527,10.637,18.008,11.28c3.816,0.263,7.323-1.129,10.439-4.124
				c0.177-0.171,0.425-0.242,0.666-0.195c0.241,0.048,0.443,0.211,0.541,0.436c1.333,3.063,2.675,5.376,2.688,5.398
				c0.208,0.358,0.087,0.817-0.271,1.025C171.87,207.051,171.74,207.084,171.612,207.084z"/>
		</g>
		<g>
			<path style="fill:#292953;" d="M154.372,199.746c-0.828,0-8.722-0.146-15.509-5.533c-0.622-0.486-1.23-1.02-1.802-1.581
				c-0.026-0.025-0.05-0.053-0.072-0.082c-1.7-1.683-3.119-3.631-4.222-5.799c-2.187,0.334-4.455,0.031-6.443-0.871
				c-2.653-1.178-4.843-3.368-6.004-6.007c-0.857-1.947-1.113-4.047-0.721-5.911c0.442-2.101,1.739-3.957,3.469-4.965
				c0.78-0.431,1.629-0.706,2.479-0.808c0.861-0.524,6.041-3.935,6.768-10.51c0.086-0.769,0.165-1.538,0.244-2.301
				c0.726-7.021,1.412-13.653,6.058-15.645c0.143-0.058,13.476-5.349,24.542,9.919c0.039,0.054,0.071,0.114,0.095,0.176
				c0.12,0.32,0.223,0.65,0.323,0.98c0.012,0.024,0.022,0.049,0.032,0.075c0,0,0.932,2.55,2.154,6.065c0,0.001,0,0.001,0,0.001
				c2.271,6.577,5.059,15.191,5.449,18.873c0.595,5.453-3.531,14.765-4.365,16.576c-0.876,1.915-1.679,3.428-2.203,4.148
				c-1.872,2.56-6.587,3.151-10.213,3.198C154.421,199.746,154.401,199.746,154.372,199.746z M138.182,191.63
				c0.512,0.498,1.053,0.97,1.61,1.406c6.604,5.241,14.554,5.208,14.622,5.211c4.642-0.059,7.846-0.976,9.02-2.581
				c0.459-0.632,1.227-2.087,2.052-3.891c2.223-4.831,4.665-11.864,4.237-15.79c-0.297-2.806-2.156-9.217-5.376-18.543l0,0
				c-1.071-3.081-1.919-5.418-2.106-5.935c-0.026-0.046-0.048-0.096-0.063-0.148c-0.093-0.305-0.185-0.611-0.293-0.909
				c-10.334-14.177-22.186-9.539-22.685-9.333c-3.826,1.64-4.467,7.846-5.146,14.416c-0.079,0.768-0.159,1.54-0.245,2.312
				c-0.878,7.934-7.382,11.58-7.659,11.731c-0.09,0.049-0.189,0.08-0.291,0.089c-0.703,0.065-1.412,0.286-2.049,0.638
				c-1.354,0.79-2.385,2.276-2.741,3.969c-0.328,1.56-0.105,3.335,0.626,4.998c1.012,2.302,2.924,4.212,5.244,5.243
				c1.881,0.852,4.048,1.087,6.102,0.667c0.335-0.066,0.678,0.101,0.827,0.411c1.076,2.247,2.504,4.252,4.246,5.96
				C138.137,191.575,138.16,191.602,138.182,191.63z"/>
		</g>
		<g>
			<path style="fill:#292953;" d="M158.83,205.972c-0.335,0-0.671-0.012-1.011-0.035c-10.146-0.691-18.718-11.391-19.078-11.846
				c-0.236-0.299-0.211-0.727,0.059-0.996c0.27-0.27,0.698-0.292,0.996-0.057c6.6,5.238,14.55,5.205,14.617,5.207
				c4.642-0.059,7.846-0.976,9.02-2.581c0.459-0.632,1.227-2.087,2.052-3.891c0.14-0.305,0.47-0.477,0.795-0.429
				c0.332,0.051,0.589,0.315,0.631,0.647c0.297,2.36,1.192,5.241,2.659,8.562c0.128,0.289,0.061,0.625-0.167,0.844
				C166.243,204.436,162.69,205.972,158.83,205.972z M143.873,197.277c3.372,3.068,8.537,6.79,14.053,7.164
				c3.662,0.251,7.039-1.02,10.059-3.769c-0.977-2.267-1.691-4.342-2.136-6.2c-0.473,0.922-0.889,1.643-1.204,2.076
				c-1.872,2.56-6.587,3.151-10.213,3.198C154.165,199.749,149.293,199.77,143.873,197.277z"/>
		</g>
		<g>
			<path style="fill:#292953;" d="M39.32,382.363c-0.384,0-0.706-0.29-0.746-0.673l-1.918-18.436l-12.764,3.694
				c-0.663,1.001-3.281,4.746-6.438,6.476c-2.7,1.488-5.752,2.143-7.255,1.55c-0.614-0.241-0.856-0.636-0.952-0.924
				c-0.119-0.354-0.483-1.433,5.167-7.811c0.145-3.197,2.644-5.604,5.338-7.73c2.937-2.329,20.54-15.099,22.288-16.365
				c1.398-2.165,21.239-32.876,24.289-37.932c3.076-5.072,13.654-14.323,15.036-15.521l9.452-22.418
				c0.161-0.382,0.6-0.561,0.982-0.4c0.381,0.161,0.561,0.602,0.399,0.982l-9.52,22.58c-0.045,0.107-0.114,0.202-0.201,0.277
				c-0.118,0.1-11.766,10.165-14.866,15.276c-3.156,5.232-24.176,37.759-24.388,38.087c-0.05,0.078-0.115,0.146-0.189,0.2
				c-0.193,0.14-19.35,14.029-22.351,16.41c-3.393,2.677-4.776,4.66-4.776,6.846c0,0.184-0.067,0.361-0.19,0.499
				c-2.24,2.517-4.704,5.65-4.999,6.578c0.493,0.262,3.017,0.153,6.013-1.498c3.241-1.776,6.021-6.158,6.048-6.202
				c0.098-0.156,0.25-0.271,0.427-0.322l13.894-4.021c0.213-0.061,0.443-0.025,0.627,0.099c0.184,0.124,0.304,0.323,0.327,0.545
				l1.93,18.546c0.81-0.229,2.051-0.937,2.159-3.114c0.182-3.892,1.439-12.916,1.493-13.298c0.034-0.243,0.186-0.455,0.405-0.566
				c0.074-0.037,7.367-3.833,8.806-13.421c0.024-0.158,0.098-0.305,0.211-0.419c15.388-15.414,44.841-45.036,46.169-46.82
				c0.956-1.285,7.668-11.294,18.898-28.185c0.229-0.347,0.696-0.436,1.04-0.21c0.345,0.229,0.439,0.695,0.209,1.04
				c-7.955,11.964-17.699,26.577-18.944,28.249c-1.687,2.268-42.677,43.346-46.138,46.813c-1.461,9.077-7.647,13.189-9.222,14.099
				c-0.243,1.773-1.271,9.405-1.429,12.791c-0.18,3.648-2.9,4.638-4.314,4.651C39.325,382.363,39.323,382.363,39.32,382.363z"/>
		</g>
		<g>
			<path style="fill:#292953;" d="M247.838,281.318c-0.231,0-0.459-0.106-0.605-0.307c-0.245-0.334-0.173-0.803,0.161-1.048
				l24.576-18.036c0.336-0.248,0.804-0.172,1.048,0.161c0.245,0.334,0.173,0.803-0.161,1.048l-24.576,18.036
				C248.146,281.271,247.991,281.318,247.838,281.318z"/>
		</g>
		<g>
			<path style="fill:#292953;" d="M249.699,331.088c-4.692,0-9.096-0.441-12.674-1.533c-13.962-4.262-35.467-23.618-36.376-24.439
				c-0.307-0.278-0.331-0.753-0.053-1.06c0.279-0.309,0.752-0.329,1.059-0.054c0.22,0.199,22.165,19.954,35.807,24.117
				c13.853,4.229,41.639-1.867,46.993-4.693c4.479-2.364,30.869-40.664,40.835-55.479c0.018-1.096,0.176-5.11,1.557-6.786
				c0.377-0.459,0.871-0.689,1.451-0.666c1.291,0.051,2.682,1.49,3.485,2.476c2.26-2.941,3.915-4.299,4.944-4.043
				c1.296,0.324,2.272,2.9,2.798,4.67c2.649,0.686,17.523,4.426,26.556,4.426c9.956,0,70.035-6.175,70.641-6.237
				c0.425-0.047,0.78,0.258,0.823,0.669c0.042,0.412-0.257,0.781-0.669,0.823c-2.477,0.255-60.763,6.245-70.795,6.245
				c-10.092,0-26.652-4.397-27.352-4.584c-0.257-0.068-0.458-0.268-0.529-0.522c-0.517-1.851-1.357-3.707-1.805-4.012
				c-0.622,0.202-2.451,2.141-4.004,4.254c-0.144,0.194-0.365,0.325-0.613,0.306c-0.242-0.003-0.468-0.122-0.606-0.32
				c-0.734-1.052-2.176-2.621-2.934-2.651c-0.07-0.001-0.137,0.004-0.233,0.121c-0.996,1.209-1.216,4.788-1.217,6.064
				c0,0.149-0.045,0.295-0.128,0.418c-1.457,2.168-35.754,53.121-41.504,56.156C280.899,326.999,263.977,331.088,249.699,331.088z"
				/>
		</g>
		<g>
			<path style="fill:#292953;" d="M131.701,268.706c-0.196,0-0.392-0.076-0.539-0.229c-0.288-0.298-0.28-0.772,0.018-1.061
				l16.626-16.083c0.296-0.287,0.771-0.281,1.061,0.018c0.288,0.298,0.28,0.773-0.018,1.061l-16.626,16.083
				C132.077,268.636,131.889,268.706,131.701,268.706z"/>
		</g>
		<g>
			<path style="fill:#292953;" d="M135.455,268.126c-0.259,0-0.51-0.134-0.649-0.374c-0.208-0.358-0.085-0.817,0.273-1.024
				l8.648-5.012c0.357-0.21,0.817-0.087,1.025,0.272c0.208,0.358,0.085,0.817-0.273,1.024l-8.648,5.012
				C135.712,268.094,135.583,268.126,135.455,268.126z"/>
		</g>
		<g>
			<path style="fill:#292953;" d="M182.738,272.727c-0.146,0-0.292-0.042-0.421-0.13c-0.343-0.232-0.432-0.699-0.199-1.042
				c7.133-10.497,15.688-19.946,25.425-28.086c0.318-0.266,0.791-0.223,1.056,0.094c0.266,0.318,0.224,0.791-0.094,1.057
				c-9.63,8.051-18.091,17.397-25.147,27.779C183.214,272.612,182.978,272.727,182.738,272.727z"/>
		</g>
		<g>
			<path style="fill:#292953;" d="M199.734,276.665c-0.005,0-0.01,0-0.015,0c-0.414-0.009-0.744-0.351-0.735-0.765
				c0.286-14.38,8.49-28.363,20.903-35.626c0.355-0.208,0.816-0.09,1.026,0.269c0.209,0.357,0.089,0.817-0.269,1.026
				c-11.973,7.005-19.886,20.492-20.161,34.36C200.475,276.339,200.141,276.665,199.734,276.665z"/>
		</g>
		<g>
			<path style="fill:#292953;" d="M201.061,219.852c-0.127,0-0.255-0.032-0.373-0.1l-14.729-8.457
				c-0.359-0.206-0.483-0.665-0.277-1.024c0.207-0.359,0.666-0.481,1.024-0.277l14.729,8.457c0.359,0.206,0.483,0.665,0.277,1.024
				C201.574,219.717,201.321,219.852,201.061,219.852z"/>
		</g>
		<g>
			<path style="fill:#292953;" d="M199.116,216.152c-0.284,0-0.555-0.162-0.682-0.436l-3.567-7.732
				c-0.173-0.376-0.009-0.821,0.367-0.995c0.375-0.175,0.821-0.009,0.995,0.367l3.567,7.731c0.173,0.376,0.009,0.821-0.367,0.995
				C199.328,216.13,199.221,216.152,199.116,216.152z"/>
		</g>
		<g>
			<path style="fill:#292953;" d="M236.14,195.186c-0.122,0-0.246-0.03-0.36-0.092c-4.416-2.424-4.269-8.743-4.26-9.011
				c0.013-0.414,0.369-0.745,0.773-0.725c0.413,0.012,0.739,0.358,0.726,0.772c-0.001,0.056-0.123,5.671,3.483,7.649
				c0.363,0.2,0.496,0.655,0.297,1.018C236.662,195.046,236.405,195.186,236.14,195.186z"/>
		</g>
		<g>
			<path style="fill:#292953;" d="M231.977,125.83c-0.385,0-0.712-0.294-0.746-0.685c-0.012-0.122-0.337-3.097-3.671-5.231
				c-3.528-2.258-10.093-3.001-10.159-3.008c-0.333-0.037-0.602-0.29-0.658-0.621c-0.006-0.039-0.669-3.964-1.247-6.049
				c-0.521-1.881-3.025-3.869-3.05-3.889c-0.326-0.256-0.382-0.728-0.126-1.053c0.256-0.326,0.728-0.382,1.053-0.126
				c0.119,0.093,2.916,2.311,3.568,4.668c0.472,1.704,0.979,4.475,1.186,5.65c1.735,0.237,7.015,1.1,10.241,3.165
				c3.982,2.549,4.344,6.21,4.357,6.365c0.036,0.413-0.27,0.776-0.682,0.812C232.021,125.829,231.999,125.83,231.977,125.83z"/>
		</g>
		<g>
			<path style="fill:#292953;" d="M227.462,113.54c-0.28,0-0.597-0.046-0.955-0.161c-1.915-0.614-2.583-4.144-2.781-5.632
				c-0.171-1.282,0.836-3.342,1.04-3.743c0.188-0.369,0.64-0.515,1.008-0.328c0.369,0.188,0.516,0.639,0.329,1.008
				c-0.418,0.824-0.971,2.257-0.89,2.864c0.305,2.287,1.058,4.18,1.753,4.402c0.266,0.087,0.633,0.154,0.872-0.013
				c0.21-0.146,0.296-0.438,0.306-0.645c0.027-0.598-0.201-2.382-0.291-3.019c-0.058-0.41,0.228-0.79,0.637-0.848
				c0.409-0.059,0.79,0.228,0.848,0.637c0.035,0.249,0.343,2.454,0.304,3.299c-0.034,0.744-0.389,1.42-0.948,1.808
				C228.422,113.359,228.016,113.54,227.462,113.54z"/>
		</g>
		<g>
			<path style="fill:#292953;" d="M223.675,114.679c-0.426,0-0.842-0.086-1.204-0.261c-1.578-0.763-2.805-5.38-2.876-6.808
				c-0.081-1.624,0.79-3.957,0.828-4.055c0.146-0.388,0.578-0.584,0.966-0.437c0.388,0.146,0.584,0.579,0.438,0.966
				c-0.222,0.591-0.787,2.363-0.733,3.451c0.082,1.641,1.392,5.209,2.031,5.532c0.404,0.195,1.048,0.127,1.498-0.16
				c0.347-0.221,0.52-0.526,0.515-0.905c-0.006-0.414,0.325-0.755,0.739-0.761c0.415,0.005,0.755,0.326,0.761,0.739
				c0.013,0.895-0.428,1.693-1.209,2.191C224.905,114.507,224.279,114.679,223.675,114.679z"/>
		</g>
		<g>
			<path style="fill:#292953;" d="M220.046,114.626c-0.53,0-1.021-0.098-1.472-0.293c-1.295-0.562-1.72-1.705-1.764-1.833
				c-2.757-7.166-0.774-9.001-0.349-9.296c0.34-0.235,0.807-0.151,1.044,0.189c0.228,0.33,0.156,0.778-0.157,1.02
				c-0.079,0.08-1.434,1.58,0.872,7.574c0.016,0.044,0.26,0.68,0.972,0.979c0.697,0.292,1.672,0.175,2.819-0.34
				c0.378-0.17,0.821,0,0.991,0.378c0.169,0.378,0,0.821-0.378,0.991C221.687,114.415,220.824,114.626,220.046,114.626z"/>
		</g>
		<g>
			<path style="fill:#292953;" d="M15.157,367.281c-0.183,0-0.367-0.066-0.511-0.201c-0.303-0.282-0.32-0.757-0.038-1.06
				c0.019-0.02,1.904-2.041,3.784-3.959c1.951-1.989,10.271-5.302,11.213-5.674c0.385-0.149,0.821,0.038,0.973,0.423
				c0.152,0.386-0.038,0.821-0.423,0.974c-2.478,0.976-9.229,3.837-10.691,5.328c-1.867,1.903-3.739,3.911-3.758,3.932
				C15.558,367.201,15.358,367.281,15.157,367.281z"/>
		</g>
		<g>
			<g>
				<path style="fill:#ABABFB;" d="M155.113,165.993c0,0-0.723,3.241,0.169,6.801c0.892,3.559,3.835,5.267,5.149,4.77
					c1.313-0.497,3.441-2.636,2.783-4.434c0,0-0.832-1.129-2.119-1.886C159.808,170.486,155.113,165.993,155.113,165.993z"/>
			</g>
			<g>
				<path style="fill:#292953;" d="M158.952,179.28c-0.264,0-0.521-0.14-0.657-0.388c-0.2-0.362-0.068-0.819,0.295-1.019
					c1.606-0.887,2.942-2.128,3.862-3.591c0.343-0.545,0.042-1.113-0.382-1.409c-3.111-2.174-5.951-4.65-8.44-7.357
					c-0.28-0.305-0.26-0.779,0.045-1.06c0.305-0.279,0.78-0.26,1.06,0.044c2.416,2.627,5.173,5.031,8.195,7.143
					c1.17,0.817,1.511,2.295,0.792,3.438c-1.055,1.677-2.579,3.097-4.407,4.106C159.199,179.25,159.074,179.28,158.952,179.28z"/>
			</g>
			<g>
				<path style="fill:#292953;" d="M146.842,166.909c0.498,1.668-0.274,3.371-1.725,3.805c-1.451,0.434-3.031-0.567-3.529-2.234
					c-0.498-1.668,0.274-3.371,1.725-3.805C144.763,164.241,146.344,165.241,146.842,166.909z"/>
			</g>
			<g>
				<path style="fill:#292953;" d="M163.372,161.968c0.498,1.668-0.274,3.371-1.725,3.805c-1.451,0.434-3.031-0.567-3.53-2.234
					c-0.498-1.668,0.274-3.371,1.725-3.805C161.293,159.301,162.873,160.301,163.372,161.968z"/>
			</g>
			<g>
				<path style="fill:#292953;" d="M142.169,158.616c-1.773,0.696-3.354,1.671-4.774,2.94c-0.256,0.229-0.396,0.687-0.389,1.018
					c0.008,0.359,0.181,0.788,0.459,1.025c0.279,0.239,0.641,0.414,1.018,0.389c0.408-0.027,0.721-0.187,1.025-0.459
					c0.076-0.068,0.155-0.133,0.233-0.2c0.883-0.711,1.848-1.309,2.878-1.785c0.126-0.054,0.251-0.109,0.379-0.159
					c0.364-0.143,0.667-0.344,0.858-0.698c0.169-0.312,0.232-0.76,0.113-1.1C143.727,158.898,142.922,158.32,142.169,158.616z"/>
			</g>
			<g>
				<path style="fill:#292953;" d="M155.843,154.529c1.865-0.391,3.721-0.443,5.605-0.163c0.339,0.051,0.708,0.357,0.884,0.637
					c0.19,0.304,0.281,0.758,0.179,1.109c-0.102,0.353-0.308,0.698-0.637,0.884c-0.356,0.201-0.706,0.239-1.109,0.179
					c-0.101-0.015-0.203-0.026-0.304-0.039c-1.129-0.11-2.263-0.08-3.385,0.087c-0.135,0.024-0.27,0.047-0.404,0.075
					c-0.382,0.08-0.747,0.078-1.1-0.113c-0.312-0.169-0.611-0.508-0.698-0.858C154.694,155.62,155.05,154.695,155.843,154.529z"/>
			</g>
			<g>
				<path style="fill:#292953;" d="M131.424,184.029c-0.297,0-0.579-0.178-0.696-0.471c-1.34-3.341-4.144-6.112-7.501-7.413
					c-0.386-0.149-0.578-0.584-0.428-0.97c0.15-0.387,0.585-0.58,0.97-0.428c3.737,1.448,6.859,4.533,8.351,8.253
					c0.154,0.385-0.033,0.821-0.417,0.976C131.612,184.011,131.517,184.029,131.424,184.029z"/>
			</g>
			<g>
				<path style="fill:#292953;" d="M155.158,191.655c-0.384,0-0.741-0.086-1.062-0.301c-0.611-0.409-0.92-1.183-0.944-2.366
					c-0.078-3.883,2.252-7.527,5.304-8.296c1.317-0.333,2.626-0.072,3.684,0.735c1.379,1.053,2.196,2.903,2.24,5.077
					c0.061,3.048-1.25,3.403-3.108,3.572c-0.527,0.048-1.124,0.102-1.766,0.264c-0.611,0.154-1.236,0.397-1.839,0.632
					C156.773,191.32,155.913,191.655,155.158,191.655z M159.571,182.05c-0.244,0-0.495,0.032-0.749,0.096
					c-2.363,0.596-4.234,3.651-4.17,6.811c0.018,0.93,0.235,1.121,0.278,1.15c0.303,0.204,1.395-0.222,2.191-0.532
					c0.616-0.24,1.314-0.512,2.016-0.689c0.756-0.191,1.444-0.253,1.998-0.304c1.51-0.137,1.782-0.162,1.744-2.048l0,0
					c-0.034-1.714-0.636-3.141-1.65-3.915C160.734,182.242,160.171,182.05,159.571,182.05z"/>
			</g>
		</g>
		<g>
			<circle style="fill:#ABABFB;" cx="142.635" cy="178.53" r="5.048"/>
		</g>
	</g>
	<g>
		<g>
			<path style="fill:#FFFFFF;" d="M172.84,157.593l0.209,0.934c0.805,3.594-1.482,7.2-5.076,8.005l-3.814,0.854l-28.306,6.337
				c-3.594,0.805-7.2-1.482-8.005-5.076l-0.209-0.934L172.84,157.593z"/>
		</g>
		<g>
			<path style="fill:#292953;" d="M170.808,148.516l2.032,9.076l-45.2,10.12l-2.032-9.076L170.808,148.516z M169.93,154.97
				c0.281-0.443,0.397-1,0.271-1.562c-0.245-1.096-1.366-1.807-2.471-1.559l-36.639,8.203c-0.562,0.126-1.009,0.456-1.3,0.902
				c-0.277,0.462-0.395,1.009-0.271,1.562c0.25,1.115,1.358,1.818,2.474,1.569l36.639-8.203
				C169.185,155.758,169.641,155.426,169.93,154.97z"/>
		</g>
		<g>
			<path style="fill:#FFFFFF;" d="M170.596,147.573l0.211,0.944l-45.2,10.12l-0.211-0.944c-0.805-3.594,1.482-7.2,5.076-8.005
				l28.306-6.338l3.813-0.854C166.186,141.692,169.791,143.978,170.596,147.573z"/>
		</g>
		<g>
			<path style="fill:#9CD9D3;" d="M170.201,153.408c0.126,0.563,0.01,1.119-0.271,1.562c-0.289,0.455-0.745,0.788-1.298,0.911
				l-36.639,8.203c-1.115,0.25-2.224-0.453-2.474-1.569c-0.124-0.553-0.006-1.1,0.271-1.562c0.291-0.446,0.737-0.776,1.3-0.902
				l36.639-8.203C168.835,151.601,169.955,152.312,170.201,153.408z"/>
		</g>
		<g>
			<path style="fill:#FFFFFF;" d="M126.658,150.542l3.814-0.854c-3.594,0.805-5.881,4.41-5.076,8.005l0.211,0.944l2.032,9.076
				l0.209,0.934c0.805,3.594,4.41,5.881,8.005,5.076l-3.813,0.854c-3.594,0.805-7.2-1.482-8.005-5.076l-0.811-3.623l-1.099-4.91
				l-0.542-2.422C120.778,154.952,123.064,151.346,126.658,150.542z"/>
		</g>
		<g>
			
				<rect x="105.793" y="162.774" transform="matrix(0.9758 -0.2185 0.2185 0.9758 -33.351 28.9743)" style="fill:#FFFFFF;" width="17.088" height="5.031"/>
		</g>
		<g>
			<path style="fill:#292953;" d="M134.389,174.635c-1.397,0-2.771-0.397-3.986-1.168c-1.686-1.069-2.854-2.723-3.287-4.657
				l-0.21-0.935c-0.043-0.194-0.008-0.398,0.099-0.565c0.106-0.169,0.275-0.287,0.469-0.331l45.2-10.12
				c0.195-0.042,0.398-0.007,0.566,0.099c0.168,0.107,0.287,0.275,0.33,0.47l0.209,0.934c0.433,1.934,0.083,3.927-0.987,5.614
				c-1.069,1.686-2.723,2.854-4.657,3.287l-32.12,7.191C135.476,174.576,134.931,174.635,134.389,174.635z M128.535,168.28
				l0.046,0.203c0.717,3.203,3.908,5.225,7.108,4.508l32.12-7.191c3.203-0.717,5.225-3.907,4.507-7.109l-0.045-0.202L128.535,168.28
				z"/>
		</g>
		<g>
			<path style="fill:#292953;" d="M127.639,168.462c-0.344,0-0.653-0.237-0.732-0.586l-2.032-9.076
				c-0.044-0.194-0.008-0.398,0.099-0.566c0.106-0.168,0.275-0.287,0.469-0.33l45.2-10.12c0.405-0.091,0.806,0.164,0.896,0.568
				l2.032,9.076c0.043,0.194,0.008,0.398-0.099,0.566c-0.106,0.168-0.275,0.287-0.469,0.33l-45.2,10.12
				C127.748,168.457,127.693,168.462,127.639,168.462z M126.503,159.204l1.704,7.613l43.736-9.792l-1.704-7.613L126.503,159.204z
				 M131.536,164.886c-0.529,0-1.048-0.15-1.506-0.44c-0.637-0.404-1.078-1.031-1.242-1.766c-0.159-0.709-0.032-1.459,0.359-2.111
				c0.424-0.65,1.051-1.085,1.78-1.248l36.639-8.203c1.523-0.339,3.029,0.615,3.368,2.127c0.165,0.738,0.033,1.493-0.37,2.128l0,0
				c-0.403,0.636-1.031,1.077-1.768,1.241l-36.638,8.203C131.951,164.863,131.742,164.886,131.536,164.886z M168.173,152.55
				c-0.093,0-0.186,0.01-0.28,0.031l-36.639,8.203c-0.351,0.079-0.64,0.279-0.836,0.58c-0.12,0.202-0.262,0.562-0.166,0.988
				c0.077,0.344,0.284,0.638,0.581,0.827c0.299,0.189,0.652,0.251,0.996,0.174l36.639-8.203c0.346-0.077,0.64-0.284,0.829-0.581l0,0
				c0.189-0.297,0.249-0.651,0.172-0.998C169.334,152.971,168.775,152.55,168.173,152.55z"/>
		</g>
		<g>
			<path style="fill:#292953;" d="M125.607,159.386c-0.141,0-0.281-0.04-0.402-0.117c-0.168-0.107-0.287-0.275-0.33-0.47
				l-0.211-0.944c-0.897-4.01,1.634-8.002,5.644-8.9l32.12-7.191c1.936-0.433,3.928-0.083,5.614,0.987
				c1.687,1.069,2.854,2.724,3.287,4.657c0,0.001,0,0.001,0,0.001l0.211,0.944c0.09,0.404-0.164,0.805-0.568,0.896l-45.2,10.12
				C125.717,159.38,125.662,159.386,125.607,159.386z M164.052,143.085c-0.432,0-0.866,0.047-1.297,0.144l-32.12,7.191
				c-1.543,0.345-2.863,1.278-3.718,2.626c-0.854,1.348-1.135,2.94-0.79,4.482l0.047,0.212l43.736-9.792l-0.047-0.212
				c-0.346-1.543-1.278-2.863-2.626-3.718C166.267,143.402,165.168,143.085,164.052,143.085z"/>
		</g>
		<g>
			<path style="fill:#292953;" d="M131.536,164.886c-0.529,0-1.048-0.15-1.506-0.44c-0.637-0.404-1.078-1.031-1.242-1.766
				c-0.159-0.709-0.032-1.459,0.359-2.111c0.424-0.65,1.051-1.085,1.78-1.248l36.639-8.203c1.523-0.339,3.029,0.615,3.368,2.127
				c0,0,0,0,0,0.001c0.165,0.737,0.033,1.492-0.37,2.127c-0.403,0.636-1.031,1.077-1.768,1.241l-36.638,8.203
				C131.951,164.863,131.742,164.886,131.536,164.886z M168.173,152.55c-0.093,0-0.186,0.01-0.28,0.031l-36.639,8.203
				c-0.351,0.079-0.64,0.279-0.836,0.58c-0.12,0.202-0.262,0.562-0.166,0.988c0.077,0.344,0.284,0.638,0.581,0.827
				c0.299,0.189,0.652,0.251,0.996,0.174l36.639-8.203c0.346-0.077,0.64-0.284,0.829-0.581c0.188-0.297,0.249-0.65,0.172-0.997l0,0
				C169.334,152.971,168.775,152.55,168.173,152.55z"/>
		</g>
		<g>
			<path style="fill:#292953;" d="M130.576,175.489c-1.397,0-2.771-0.397-3.986-1.167c-1.687-1.07-2.854-2.724-3.287-4.657
				l-2.453-10.954c-0.433-1.934-0.082-3.928,0.987-5.614c1.07-1.686,2.724-2.854,4.657-3.287c0,0,0,0,0.001,0l3.811-0.853
				c0.001,0,0.002,0,0.002,0h0c0.4-0.09,0.805,0.165,0.896,0.568c0.09,0.404-0.164,0.806-0.568,0.896l-0.002,0
				c-1.542,0.346-2.861,1.278-3.716,2.625c-0.854,1.348-1.135,2.94-0.79,4.482l2.453,10.955c0.345,1.543,1.278,2.863,2.626,3.718
				c1.348,0.854,2.94,1.137,4.482,0.79c0.404-0.09,0.806,0.164,0.896,0.568c0.09,0.404-0.164,0.805-0.568,0.896l0,0
				c-0.001,0-0.001,0-0.002,0.001l-3.811,0.854C131.663,175.43,131.118,175.489,130.576,175.489z M126.232,151.438
				c-1.288,0.431-2.384,1.29-3.127,2.462c-0.855,1.348-1.136,2.94-0.79,4.483l2.453,10.954c0.671,3.002,3.517,4.958,6.504,4.612
				c-2.036-0.941-3.628-2.785-4.154-5.137l-2.453-10.955C124.137,155.504,124.791,153.157,126.232,151.438z"/>
		</g>
		<g>
			<path style="fill:#292953;" d="M106.549,170.361c-0.344,0-0.653-0.237-0.731-0.586l-1.099-4.91
				c-0.09-0.404,0.164-0.806,0.568-0.896l16.675-3.733c0.195-0.043,0.399-0.007,0.566,0.099c0.168,0.107,0.287,0.275,0.33,0.469
				l1.099,4.91c0.09,0.404-0.164,0.806-0.568,0.896l-16.675,3.733C106.658,170.355,106.603,170.361,106.549,170.361z
				 M106.345,165.269l0.771,3.446l15.211-3.405l-0.771-3.447L106.345,165.269z"/>
		</g>
	</g>
	<g>
		<g>
			<path style="fill:#292953;" d="M90.031,149.06c-1.555,0-2.73-0.412-3.427-1.313c-2.235-2.888,1.867-8.978,5.702-13.578
				c5.207-6.245,12.955-13.462,21.818-20.323c16.298-12.615,35.755-23.26,39.717-18.142l0,0c3.96,5.118-11.223,21.286-27.52,33.901
				C112.891,140.001,97.313,149.06,90.031,149.06z M150.446,95.858c-5.509,0-19.379,6.771-35.403,19.174
				c-8.78,6.796-16.445,13.933-21.584,20.097c-5.629,6.753-6.619,10.471-5.668,11.7c2.451,3.166,18.499-3.617,37.613-18.411
				c19.111-14.793,29.7-28.629,27.252-31.796l0,0C152.26,96.11,151.508,95.858,150.446,95.858z"/>
		</g>
		<g>
			<path style="fill:#292953;" d="M96.211,133.991c-1.396,0-2.739-0.03-4.021-0.09c-5.983-0.28-13.244-1.37-13.863-4.97
				c-1.097-6.378,19.898-13.532,40.209-17.025c11.045-1.9,21.601-2.735,29.723-2.356c5.982,0.28,13.244,1.37,13.863,4.97
				c1.097,6.378-19.898,13.532-40.209,17.025C112.612,133.145,103.656,133.991,96.211,133.991z M144.23,110.961
				c-7.358,0-16.221,0.838-25.441,2.424c-23.819,4.096-39.663,11.347-38.984,15.292c0.263,1.531,3.673,3.314,12.455,3.725
				c8.017,0.372,18.457-0.455,29.399-2.336c23.819-4.096,39.663-11.347,38.984-15.293c-0.263-1.531-3.673-3.313-12.455-3.725
				C146.927,110.99,145.603,110.961,144.23,110.961z"/>
		</g>
		<g>
			<path style="fill:#FFFFFF;" d="M105.361,143.077c-4.158,3.735-1.917,9.579-1.694,10.124c-0.207-0.505-2.697-6.281-8.304-6.033
				c4.169-3.763,1.901-9.619,1.694-10.124C97.279,137.589,99.773,143.318,105.361,143.077z"/>
			<path style="fill:#292953;" d="M103.667,153.951c-0.296,0-0.576-0.176-0.695-0.466c0-0.001,0-0.001,0-0.001l0,0
				c0-0.001-0.001-0.001-0.001-0.001c-0.247-0.602-2.517-5.768-7.576-5.566c-0.325,0.024-0.607-0.172-0.727-0.464
				c-0.12-0.293-0.044-0.629,0.191-0.841c3.757-3.391,1.75-8.676,1.503-9.28c0-0.001,0-0.002-0.001-0.003
				c-0.157-0.383,0.027-0.821,0.411-0.978c0.385-0.158,0.821,0.028,0.978,0.41c0,0.001,0,0,0,0.001l0,0
				c0.242,0.593,2.526,5.822,7.578,5.566c0.317-0.004,0.607,0.173,0.727,0.466c0.12,0.293,0.042,0.629-0.193,0.841
				c-3.754,3.372-1.755,8.659-1.503,9.277c0.001,0.001,0.001,0.003,0.002,0.004c0,0.001,0,0.001,0,0.001
				c0.157,0.383-0.027,0.821-0.411,0.978C103.857,153.934,103.761,153.951,103.667,153.951z M96.98,146.505
				c2.261,0.347,3.948,1.596,5.137,2.906c-0.071-1.768,0.256-3.842,1.624-5.673c-2.261-0.349-3.948-1.598-5.136-2.907
				C98.675,142.598,98.347,144.671,96.98,146.505z"/>
		</g>
		<g>
			<path style="fill:#FFFFFF;" d="M133.754,101.933c-4.158,3.735-1.917,9.579-1.694,10.124c-0.206-0.505-2.697-6.281-8.304-6.033
				c4.169-3.763,1.901-9.619,1.694-10.124C125.673,96.445,128.167,102.173,133.754,101.933z"/>
			<path style="fill:#292953;" d="M132.061,112.806c-0.296,0-0.576-0.176-0.695-0.466c0,0,0,0,0-0.001l0,0
				c0,0-0.001-0.001-0.001-0.002c-0.247-0.604-2.534-5.789-7.577-5.565c-0.333,0.011-0.607-0.172-0.727-0.464
				c-0.12-0.293-0.043-0.629,0.191-0.841c3.757-3.391,1.751-8.676,1.503-9.28c0-0.001-0.001-0.002-0.001-0.003
				c-0.157-0.383,0.027-0.821,0.41-0.978c0.386-0.157,0.821,0.028,0.979,0.41c0,0.001,0,0,0,0.001l0,0
				c0.242,0.593,2.529,5.797,7.578,5.567c0.324-0.01,0.607,0.173,0.727,0.466c0.12,0.293,0.042,0.629-0.193,0.841
				c-3.765,3.382-1.744,8.688-1.501,9.282c0.157,0.383-0.027,0.821-0.41,0.978C132.251,112.789,132.155,112.806,132.061,112.806z
				 M125.373,105.36c2.261,0.347,3.948,1.596,5.136,2.906c-0.071-1.767,0.257-3.841,1.625-5.672
				c-2.261-0.349-3.948-1.598-5.136-2.907C127.069,101.453,126.741,103.526,125.373,105.36z"/>
		</g>
		<g>
			<path style="fill:#FFFFFF;" d="M158.899,119.252c-4.158,3.735-1.917,9.579-1.694,10.124c-0.207-0.505-2.697-6.281-8.304-6.033
				c4.169-3.763,1.901-9.619,1.694-10.123C150.818,113.763,153.312,119.492,158.899,119.252z"/>
			<path style="fill:#292953;" d="M157.206,130.125c-0.296,0-0.576-0.176-0.695-0.466c0,0,0,0,0-0.001l0,0
				c0-0.001-0.001-0.001-0.001-0.002c-0.247-0.604-2.535-5.784-7.577-5.565c-0.333,0.018-0.607-0.172-0.727-0.464
				c-0.12-0.293-0.043-0.629,0.191-0.841c3.757-3.391,1.751-8.676,1.504-9.28c0-0.001-0.001-0.002-0.001-0.003
				c-0.157-0.383,0.027-0.821,0.411-0.978c0.383-0.158,0.821,0.028,0.978,0.41c0,0.001,0,0,0,0.001l0,0
				c0.242,0.593,2.523,5.815,7.578,5.567c0.321-0.006,0.607,0.173,0.727,0.466c0.12,0.293,0.043,0.629-0.193,0.841
				c-3.765,3.382-1.744,8.687-1.501,9.282c0.157,0.383-0.027,0.821-0.411,0.978C157.396,130.108,157.3,130.125,157.206,130.125z
				 M150.518,122.679c2.261,0.347,3.948,1.596,5.137,2.906c-0.071-1.767,0.256-3.841,1.625-5.672
				c-2.262-0.349-3.948-1.598-5.136-2.907C152.214,118.772,151.886,120.845,150.518,122.679z"/>
		</g>
		<g>
			<path style="fill:#7770FA;" d="M102.562,111.932c0,1.601-1.298,2.899-2.899,2.899c-1.601,0-2.899-1.298-2.899-2.899
				c0-1.601,1.298-2.899,2.899-2.899C101.264,109.033,102.562,110.331,102.562,111.932z"/>
		</g>
		<g>
			<circle style="fill:#7770FA;" cx="81.337" cy="137.593" r="2.414"/>
		</g>
		<g>
			<circle style="fill:#7770FA;" cx="127.207" cy="119.749" r="1.548"/>
		</g>
		<g>
			<path style="fill:#7770FA;" d="M160.495,103.978c0,1.451-1.176,2.627-2.627,2.627c-1.451,0-2.626-1.176-2.626-2.627
				s1.176-2.627,2.626-2.627C159.319,101.352,160.495,102.528,160.495,103.978z"/>
		</g>
		<g>
			<path style="fill:#7770FA;" d="M147.838,89.309c0,0.903-0.732,1.636-1.635,1.636c-0.903,0-1.635-0.732-1.635-1.636
				c0-0.903,0.732-1.635,1.635-1.635C147.106,87.674,147.838,88.406,147.838,89.309z"/>
		</g>
	</g>
	<g>
		<path style="fill:#FFFFFF;" d="M328.835,346.437c-5.263,1.883-5.402,8.14-5.402,8.728c0-0.545-0.118-6.835-5.402-8.728
			c5.284-1.904,5.402-8.183,5.402-8.728C323.433,338.297,323.572,344.544,328.835,346.437z"/>
		<path style="fill:#292953;" d="M323.432,355.915c-0.414,0-0.75-0.336-0.75-0.75c0-0.642-0.138-6.314-4.904-8.021
			c-0.298-0.106-0.497-0.389-0.497-0.705s0.198-0.6,0.496-0.707c4.768-1.718,4.905-7.382,4.905-8.022c0-0.414,0.336-0.75,0.75-0.75
			c0.414,0,0.75,0.336,0.75,0.75c0,0.641,0.138,6.307,4.906,8.022c0.298,0.107,0.496,0.391,0.496,0.707s-0.199,0.599-0.497,0.705
			c-4.768,1.705-4.905,7.38-4.905,8.021C324.182,355.579,323.846,355.915,323.432,355.915z M319.779,346.437
			c1.961,1.177,3.049,2.972,3.653,4.634c0.603-1.663,1.692-3.458,3.652-4.634c-1.96-1.181-3.049-2.976-3.652-4.637
			C322.828,343.461,321.74,345.256,319.779,346.437z"/>
	</g>
	<g>
		<g>
			<polygon style="fill:#292953;" points="176.413,415.085 89.259,415.085 89.243,392.919 89.184,328.14 89.175,319.881 
				176.329,319.881 176.378,377.523 176.383,387.466 			"/>
		</g>
		<g>
			<polygon style="fill:#70C4BC;" points="180.885,419.064 93.731,419.064 93.715,396.898 93.656,332.119 93.647,323.859 
				180.801,323.859 180.85,381.501 180.855,391.444 			"/>
		</g>
		<g>
			<polygon style="fill:#FFFFFF;" points="185.998,422.83 98.844,422.83 98.828,400.664 98.769,335.885 98.76,327.626 
				185.914,327.626 185.962,385.268 185.968,395.211 			"/>
		</g>
		<g>
			<polygon style="fill:#C4E4E6;" points="182.295,392.556 102.494,392.556 102.5,389.319 182.301,389.319 			"/>
		</g>
		<g>
			<polygon style="fill:#C4E4E6;" points="168.712,402.815 102.509,402.815 102.5,399.578 168.704,399.578 			"/>
		</g>
		<g>
			<rect x="102.514" y="409.837" style="fill:#C4E4E6;" width="66.203" height="3.223"/>
		</g>
		<g>
			<g>
				<path style="fill:#7770FA;" d="M177.659,357.584c0.016,9.439-7.668,17.123-17.107,17.123c-0.719,0-1.453-0.043-2.168-0.144
					c-0.043,0-0.072,0-0.11-0.014c-1.702-0.245-3.457-0.763-5.182-1.54c-2.947-1.338-6.923-3.986-10.703-9.151
					c-4.766,6.619-10.013,9.266-13.871,10.302c-1.416,0.36-2.86,0.547-4.313,0.547c-9.453,0-17.137-7.684-17.139-17.123
					c-0.011-9.454,7.658-17.137,17.112-17.137c0.719,0,1.453,0.043,2.168,0.144c0.043,0,0.072,0,0.11,0.014
					c1.717,0.245,3.452,0.777,5.177,1.554c2.947,1.338,6.928,3.971,10.707,9.137c4.766-6.619,10.018-9.281,13.871-10.302
					c1.42-0.374,2.86-0.547,4.299-0.547C169.964,340.447,177.662,348.13,177.659,357.584z M159.265,367.987
					c6.31,0.791,11.759-4.216,11.761-10.403c-0.004-5.784-4.729-10.49-10.499-10.49c-0.892,0-1.765,0.115-2.629,0.331
					c-3.129,0.835-7.637,3.295-11.727,10.13c3.404,5.64,7.069,8.23,9.657,9.396c1.452,0.647,2.655,0.921,3.423,1.036H159.265z
					 M126.833,367.728c3.129-0.835,7.637-3.295,11.722-10.115c-3.395-5.669-7.083-8.23-9.656-9.396
					c-1.447-0.662-2.67-0.921-3.423-1.036c-0.014,0-0.014,0-0.014,0c-0.427-0.058-0.863-0.086-1.28-0.086
					c-5.784,0-10.484,4.705-10.48,10.49c0.008,5.77,4.714,10.49,10.499,10.49C125.091,368.073,125.964,367.958,126.833,367.728z"/>
			</g>
		</g>
		<g>
			<path style="fill:#292953;" d="M185.998,423.58H98.844c-0.414,0-0.749-0.336-0.75-0.749l-0.084-95.204
				c0-0.199,0.079-0.391,0.219-0.531c0.141-0.141,0.332-0.22,0.531-0.22h87.154c0.414,0,0.749,0.335,0.75,0.749l0.084,95.204
				c0,0.199-0.079,0.391-0.219,0.531S186.197,423.58,185.998,423.58z M99.593,422.08h85.653l-0.083-93.704H99.511L99.593,422.08z"/>
		</g>
	</g>
	<g>
		<g>
			<rect x="214.215" y="383.218" style="fill:#FFFFFF;" width="78.575" height="51.635"/>
		</g>
		<g>
			<path style="fill:#292953;" d="M292.79,435.604h-78.575c-0.414,0-0.75-0.336-0.75-0.75v-51.636c0-0.414,0.336-0.75,0.75-0.75
				h78.575c0.414,0,0.75,0.336,0.75,0.75v51.636C293.54,435.268,293.204,435.604,292.79,435.604z M214.965,434.104h77.075v-50.136
				h-77.075V434.104z"/>
		</g>
		<g>
			<path style="fill:#292953;" d="M253.503,416.895c-0.171,0-0.343-0.059-0.481-0.175l-39.289-32.927
				c-0.317-0.267-0.359-0.739-0.093-1.057c0.267-0.318,0.738-0.358,1.057-0.094l38.806,32.523l38.806-32.523
				c0.317-0.265,0.79-0.227,1.057,0.094c0.266,0.317,0.224,0.79-0.094,1.057l-39.287,32.927
				C253.845,416.836,253.674,416.895,253.503,416.895z"/>
		</g>
		<g>
			<path style="fill:#292953;" d="M214.215,435.604c-0.21,0-0.418-0.088-0.567-0.259c-0.271-0.313-0.238-0.786,0.075-1.058
				l30.264-26.272c0.312-0.271,0.784-0.239,1.058,0.075c0.271,0.313,0.238,0.786-0.075,1.058l-30.263,26.272
				C214.564,435.543,214.389,435.604,214.215,435.604z"/>
		</g>
		<g>
			<path style="fill:#292953;" d="M292.79,435.604c-0.175,0-0.35-0.061-0.491-0.184l-30.263-26.272
				c-0.313-0.272-0.347-0.745-0.075-1.058c0.273-0.314,0.746-0.346,1.058-0.075l30.263,26.272c0.313,0.271,0.347,0.745,0.075,1.058
				C293.208,435.516,292.999,435.604,292.79,435.604z"/>
		</g>
		<g>
			<circle style="fill:#7770FA;" cx="216.115" cy="383.218" r="13.232"/>
		</g>
	</g>
	<g>
		<g>
			<path style="fill:#ABABFB;" d="M363.449,146.335v32.56c0,2.653,2.171,4.835,4.824,4.835h16.569l-4.599,14.162l19.852-14.162
				h62.862c2.663,0,4.835-2.182,4.835-4.835v-32.56c0-2.653-2.171-4.835-4.835-4.835h-94.683
				C365.621,141.501,363.449,143.683,363.449,146.335z"/>
		</g>
	</g>
	<g>
		<g>
			<path style="fill:#FFFFFF;" d="M415.621,109.512v32.56c0,2.653-2.171,4.835-4.824,4.835h-16.569l4.599,14.162l-19.852-14.162
				h-30.773c-2.663,0-4.835-2.182-4.835-4.835v-32.56c0-2.653,2.171-4.835,4.835-4.835h62.595
				C413.449,104.677,415.621,106.859,415.621,109.512z"/>
		</g>
		<g>
			<path style="fill:#292953;" d="M398.828,161.818c-0.152,0-0.305-0.046-0.436-0.14l-19.657-14.023h-30.533
				c-3.079,0-5.585-2.505-5.585-5.585v-32.559c0-3.08,2.506-5.585,5.585-5.585h62.595c3.073,0,5.574,2.505,5.574,5.585v32.559
				c0,3.079-2.501,5.585-5.574,5.585H395.26l4.28,13.181c0.101,0.308-0.009,0.645-0.27,0.836
				C399.139,161.77,398.984,161.818,398.828,161.818z M348.202,105.427c-2.253,0-4.085,1.832-4.085,4.085v32.559
				c0,2.252,1.832,4.085,4.085,4.085h30.773c0.156,0,0.309,0.049,0.435,0.14l18.001,12.841l-3.897-11.999
				c-0.074-0.228-0.035-0.478,0.107-0.672c0.141-0.194,0.366-0.309,0.606-0.309h16.568c2.246,0,4.074-1.833,4.074-4.085v-32.559
				c0-2.253-1.828-4.085-4.074-4.085H348.202z"/>
		</g>
		<g>
			
				<ellipse transform="matrix(0.7071 -0.7071 0.7071 0.7071 20.5339 286.1729)" style="fill:#7770FA;" cx="355.708" cy="118.3" rx="7.384" ry="7.384"/>
		</g>
		<g>
			<rect x="366.661" y="114.583" style="fill:#7770FA;" width="43.809" height="2.081"/>
		</g>
		<g>
			<rect x="348.413" y="136.636" style="fill:#C4E4E6;" width="62.057" height="2.081"/>
		</g>
		<g>
			<rect x="348.465" y="129.203" style="fill:#C4E4E6;" width="62.057" height="2.081"/>
		</g>
		<g>
			<rect x="366.661" y="121.769" style="fill:#C4E4E6;" width="43.809" height="2.081"/>
		</g>
	</g>
	<g>
		<g>
			<g>
				<circle style="fill:#292953;" cx="45.194" cy="230.71" r="3.558"/>
			</g>
		</g>
		<g>
			<g>
				<g>
					<circle style="fill:#292953;" cx="62.38" cy="230.71" r="3.558"/>
				</g>
			</g>
		</g>
		<g>
			<g>
				<g>
					<circle style="fill:#292953;" cx="45.194" cy="247.896" r="3.558"/>
				</g>
			</g>
		</g>
		<g>
			<g>
				<g>
					<path style="fill:#292953;" d="M41.637,265.082c0-1.965,1.593-3.558,3.558-3.558c1.965,0,3.558,1.593,3.558,3.558
						c0,1.965-1.593,3.558-3.558,3.558C43.229,268.64,41.637,267.047,41.637,265.082z"/>
				</g>
			</g>
		</g>
		<g>
			<g>
				<g>
					<circle style="fill:#292953;" cx="45.194" cy="282.268" r="3.558"/>
				</g>
			</g>
		</g>
		<g>
			<g>
				<circle style="fill:#292953;" cx="62.38" cy="247.896" r="3.558"/>
			</g>
		</g>
		<g>
			<g>
				<g>
					<path style="fill:#292953;" d="M58.823,265.082c0-1.965,1.593-3.558,3.558-3.558s3.558,1.593,3.558,3.558
						c0,1.965-1.593,3.558-3.558,3.558S58.823,267.047,58.823,265.082z"/>
				</g>
			</g>
		</g>
		<g>
			<g>
				<g>
					<circle style="fill:#292953;" cx="62.38" cy="282.268" r="3.558"/>
				</g>
			</g>
		</g>
	</g>
	<g>
		<path style="fill:#FFFFFF;" d="M360.333,368.229c-5.262,1.883-5.402,8.14-5.402,8.728c0-0.546-0.118-6.835-5.402-8.728
			c5.284-1.904,5.402-8.183,5.402-8.728C354.931,360.089,355.07,366.335,360.333,368.229z"/>
		<path style="fill:#292953;" d="M354.931,377.707c-0.414,0-0.75-0.336-0.75-0.75c0-0.642-0.138-6.315-4.905-8.023
			c-0.298-0.106-0.497-0.389-0.497-0.705c0-0.316,0.198-0.6,0.496-0.707c4.769-1.718,4.906-7.382,4.906-8.023
			c0-0.414,0.336-0.75,0.75-0.75c0.414,0,0.75,0.336,0.75,0.75c0,0.641,0.138,6.308,4.905,8.023
			c0.298,0.107,0.496,0.391,0.496,0.707c0,0.316-0.199,0.599-0.497,0.705c-4.767,1.705-4.904,7.381-4.904,8.023
			C355.681,377.371,355.345,377.707,354.931,377.707z M351.277,368.228c1.961,1.177,3.05,2.972,3.654,4.635
			c0.604-1.663,1.691-3.458,3.652-4.635c-1.961-1.18-3.049-2.976-3.652-4.637C354.327,365.252,353.238,367.047,351.277,368.228z"/>
	</g>
	<g>
		<path style="fill:#FFFFFF;" d="M328.835,386.336c-5.263,1.883-5.402,8.14-5.402,8.728c0-0.546-0.118-6.835-5.402-8.728
			c5.284-1.904,5.402-8.183,5.402-8.728C323.433,378.196,323.572,384.443,328.835,386.336z"/>
		<path style="fill:#292953;" d="M323.432,395.814c-0.414,0-0.75-0.336-0.75-0.75c0-0.642-0.138-6.314-4.904-8.021
			c-0.298-0.106-0.497-0.389-0.497-0.705s0.198-0.6,0.496-0.707c4.768-1.718,4.905-7.382,4.905-8.022c0-0.414,0.336-0.75,0.75-0.75
			c0.414,0,0.75,0.336,0.75,0.75c0,0.641,0.138,6.307,4.906,8.022c0.298,0.107,0.496,0.391,0.496,0.707s-0.199,0.599-0.497,0.705
			c-4.768,1.705-4.905,7.38-4.905,8.021C324.182,395.478,323.846,395.814,323.432,395.814z M319.779,386.335
			c1.961,1.177,3.049,2.972,3.653,4.634c0.603-1.663,1.692-3.458,3.652-4.634c-1.96-1.181-3.049-2.976-3.652-4.637
			C322.828,383.359,321.74,385.154,319.779,386.335z"/>
	</g>
</g>
</svg>
