<?xml version="1.0" standalone="no"?>
<svg xmlns:xlink="http://www.w3.org/1999/xlink" id="wave" style="transform:rotate(180deg); transition: 0.3s" viewBox="0 0 1440 100" version="1.1" xmlns="http://www.w3.org/2000/svg"><defs><linearGradient id="sw-gradient-0" x1="0" x2="0" y1="1" y2="0"><stop stop-color="rgba(119, 112, 249, 1)" offset="0%"/><stop stop-color="rgba(119, 112, 249, 1)" offset="100%"/></linearGradient></defs><path style="transform:translate(0, 0px); opacity:1" fill="url(#sw-gradient-0)" d="M0,70L34.3,66.7C68.6,63,137,57,206,50C274.3,43,343,37,411,35C480,33,549,37,617,36.7C685.7,37,754,33,823,26.7C891.4,20,960,10,1029,6.7C1097.1,3,1166,7,1234,11.7C1302.9,17,1371,23,1440,33.3C1508.6,43,1577,57,1646,55C1714.3,53,1783,37,1851,35C1920,33,1989,47,2057,48.3C2125.7,50,2194,40,2263,33.3C2331.4,27,2400,23,2469,28.3C2537.1,33,2606,47,2674,48.3C2742.9,50,2811,40,2880,41.7C2948.6,43,3017,57,3086,55C3154.3,53,3223,37,3291,40C3360,43,3429,67,3497,66.7C3565.7,67,3634,43,3703,35C3771.4,27,3840,33,3909,45C3977.1,57,4046,73,4114,78.3C4182.9,83,4251,77,4320,75C4388.6,73,4457,77,4526,71.7C4594.3,67,4663,53,4731,55C4800,57,4869,73,4903,81.7L4937.1,90L4937.1,100L4902.9,100C4868.6,100,4800,100,4731,100C4662.9,100,4594,100,4526,100C4457.1,100,4389,100,4320,100C4251.4,100,4183,100,4114,100C4045.7,100,3977,100,3909,100C3840,100,3771,100,3703,100C3634.3,100,3566,100,3497,100C3428.6,100,3360,100,3291,100C3222.9,100,3154,100,3086,100C3017.1,100,2949,100,2880,100C2811.4,100,2743,100,2674,100C2605.7,100,2537,100,2469,100C2400,100,2331,100,2263,100C2194.3,100,2126,100,2057,100C1988.6,100,1920,100,1851,100C1782.9,100,1714,100,1646,100C1577.1,100,1509,100,1440,100C1371.4,100,1303,100,1234,100C1165.7,100,1097,100,1029,100C960,100,891,100,823,100C754.3,100,686,100,617,100C548.6,100,480,100,411,100C342.9,100,274,100,206,100C137.1,100,69,100,34,100L0,100Z"/></svg>